<svg width="24" height="25" viewBox="0 0 24 25" fill="none" xmlns="http://www.w3.org/2000/svg">
<g id="Social">
<path id="Vector" d="M22.46 6.49999C21.69 6.85 20.8599 7.08 20 7.18999C20.88 6.66 21.56 5.82 21.8799 4.81C21.05 5.31 20.13 5.66 19.16 5.86C18.3699 5 17.2599 4.5 15.9999 4.5C13.65 4.5 11.73 6.42 11.73 8.79C11.73 9.13 11.77 9.46 11.84 9.76999C8.27998 9.58999 5.10998 7.87999 2.99998 5.29C2.62997 5.92 2.41997 6.66 2.41997 7.44C2.41997 8.92999 3.16997 10.25 4.32998 11C3.61997 11 2.95997 10.8 2.37998 10.5V10.53C2.37998 12.61 3.85997 14.35 5.81998 14.74C5.1907 14.9122 4.53008 14.9362 3.88997 14.81C4.16158 15.6624 4.69352 16.4084 5.411 16.943C6.12848 17.4774 6.99543 17.7737 7.88998 17.79C6.37361 18.9904 4.49397 19.6394 2.55998 19.63C2.21998 19.63 1.87997 19.61 1.53998 19.57C3.43997 20.79 5.69998 21.5 8.11997 21.5C15.9999 21.5 20.33 14.96 20.33 9.28999C20.33 9.1 20.33 8.92 20.3199 8.73C21.1599 8.13 21.8799 7.36999 22.46 6.49999Z" fill="#667085"/>
</g>
</svg>
